<svg xmlns="http://www.w3.org/2000/svg" viewBox="0 0 32 32">
  <rect width="32" height="32" rx="8" fill="#4f46e5" />
  <g fill="none" stroke="#fff" stroke-linecap="round" stroke-linejoin="round" stroke-width="1.8">
    <path d="M8.3 22.4A9.6 9.6 0 1 1 25.6 16v3.2a3.2 3.2 0 0 1-3.2 3.2h-2.1" />
    <path d="M6.4 14.9v5.4a2.1 2.1 0 0 0 2.1 2.1h1.1v-9.6H8.5a2.1 2.1 0 0 0-2.1 2.1ZM25.6 14.9v5.4a2.1 2.1 0 0 1-2.1 2.1h-1.1v-9.6h1.1a2.1 2.1 0 0 1 2.1 2.1Z" />
    <path d="M17 22.4h3.3" />
    <circle cx="15.6" cy="22.4" r="1.4" fill="#fff" />
  </g>
</svg>
